<?xml version="1.0" encoding="utf-8"?>
<!-- Generator: Adobe Illustrator 19.0.0, SVG Export Plug-In . SVG Version: 6.00 Build 0)  -->
<svg version="1.1" id="レイヤー_1" xmlns="http://www.w3.org/2000/svg" xmlns:xlink="http://www.w3.org/1999/xlink" x="0px"
	 y="0px" viewBox="0 0 91 21" style="enable-background:new 0 0 91 21;" xml:space="preserve">
<style type="text/css">
	.st0{fill:#0062B0;}
</style>
<g id="XMLID_13_">
	<g id="XMLID_17_">
		<path id="XMLID_11_" class="st0" d="M37.5,16.1c-0.3,0-1,0-1,0s0-0.8,0-1.1V8l-3,5.3c-0.2,0.4-0.4,0.6-0.5,0.7
			c-0.2,0.2-0.5,0.3-0.8,0.3c-0.3,0-0.6-0.1-0.8-0.3c-0.1-0.1-0.2-0.2-0.5-0.7L27.5,8V15c0,0.3,0,1.1,0,1.1s-0.7,0-1,0
			c-0.3,0-0.5-0.1-0.7-0.3c-0.2-0.2-0.3-0.5-0.3-0.8V6.3c0-0.4,0.1-0.8,0.4-1.1c0.3-0.3,0.6-0.5,1-0.5h0.6c0.3,0,0.5,0.1,0.8,0.3
			c0.2,0.2,0.3,0.4,0.5,0.7l3.4,5.7l3.2-5.7c0.2-0.4,0.3-0.5,0.5-0.7c0.2-0.2,0.5-0.3,0.8-0.3h0.6c0.4,0,0.7,0.2,1,0.5
			c0.3,0.3,0.4,0.6,0.4,1.1V15c0,0.3-0.1,0.6-0.3,0.8C38,16,37.7,16.1,37.5,16.1z"/>
		<path id="XMLID_26_" class="st0" d="M45.5,16.2c-1.4,0-2.5-0.5-3.4-1.5c-0.8-1-1.3-2.3-1.3-3.8c0-1.6,0.4-2.9,1.3-3.8
			c0.8-1,2-1.5,3.4-1.5c1.4,0,2.5,0.5,3.4,1.5c0.8,1,1.3,2.3,1.3,3.8c0,1.6-0.4,2.8-1.3,3.8C48,15.7,46.9,16.2,45.5,16.2z M45.5,7.7
			c-1.1,0-1.9,0.6-2.3,1.7c-0.2,0.4-0.2,0.9-0.2,1.5c0,0.6,0.1,1.1,0.2,1.5c0.2,0.4,0.4,0.7,0.6,1c0.2,0.2,0.5,0.4,0.8,0.5
			c0.3,0.1,0.6,0.2,0.9,0.2c0.3,0,0.6-0.1,0.9-0.2c0.3-0.1,0.6-0.3,0.8-0.5c0.6-0.6,0.8-1.4,0.8-2.5c0-1.1-0.3-1.9-0.9-2.5
			C46.7,7.9,46.2,7.7,45.5,7.7z"/>
		<path id="XMLID_8_" class="st0" d="M59.6,16.1c-0.3,0-1,0-1,0s0-0.8,0-1.1V9.7c0-0.7-0.1-1.2-0.4-1.6C58,7.8,57.6,7.7,57,7.7
			c-0.9,0-1.8,0.6-2.6,1.7V15c0,0.3,0,1.1,0,1.1s-0.8,0-1,0c-0.3,0-0.5-0.1-0.7-0.3c-0.2-0.2-0.3-0.5-0.3-0.8V6.8
			c0-0.3,0.1-0.6,0.3-0.8c0.2-0.2,0.4-0.3,0.7-0.3c0.3,0,0.5,0.1,0.7,0.3c0.2,0.2,0.3,0.5,0.3,0.8v0.1c0.3-0.3,0.6-0.5,0.8-0.7
			c0.7-0.4,1.4-0.7,2-0.7c0.6,0,1.2,0.1,1.6,0.3c0.4,0.2,0.8,0.5,1,0.9c0.6,0.7,0.9,1.7,0.9,2.8V15c0,0.3-0.1,0.6-0.3,0.8
			C60.2,16,59.9,16.1,59.6,16.1z"/>
		<path id="XMLID_22_" class="st0" d="M65.7,16.2c-0.9,0-1.6-0.3-2.1-0.8c-0.6-0.6-0.9-1.3-0.9-2.3c0-1,0.4-1.8,1-2.4
			c0.7-0.6,1.8-0.9,3.1-0.9h1.8c0-0.7-0.2-1.2-0.5-1.5c-0.3-0.3-0.9-0.5-1.6-0.5c-0.6,0-1.4,0.1-2.2,0.4c0,0,0,0,0,0
			c-0.1,0-0.2,0-0.4,0c-0.2,0-0.4-0.1-0.5-0.3c-0.2-0.2-0.3-0.4-0.3-0.8c0-0.3,0.1-0.6,0.6-0.9c1-0.5,2-0.7,3.1-0.7
			c1.2,0,2.2,0.4,2.9,1.3c0.6,0.7,0.9,1.6,0.9,2.7V15c0,0.3-0.1,0.6-0.3,0.8c-0.2,0.2-0.5,0.3-0.7,0.3c-0.3,0-1,0-1,0v-1
			c-0.3,0.2-0.5,0.4-0.9,0.6C67.3,16,66.6,16.2,65.7,16.2z M67.1,11.6c-0.8,0-1.4,0.1-1.8,0.3c-0.4,0.2-0.5,0.5-0.5,0.9
			c0,0.5,0.2,1.3,1.6,1.3c0.5,0,0.9-0.1,1.4-0.4c0.4-0.3,0.8-0.5,1-0.9v-1.3H67.1z"/>
		<path id="XMLID_5_" class="st0" d="M77.4,16.2c-1.3,0-2.5-0.5-3.4-1.4c-1-1-1.4-2.3-1.4-3.9c0-1.6,0.5-2.9,1.4-3.9
			C75,6,76.1,5.6,77.4,5.6c0.7,0,1.3,0.1,1.8,0.3c0.5,0.2,0.8,0.4,1.1,0.6c0.3,0.2,0.5,0.5,0.5,0.8c0,0.3-0.1,0.5-0.2,0.7
			c-0.2,0.2-0.4,0.3-0.6,0.3c-0.2,0-0.5-0.1-0.7-0.2c-0.5-0.3-1.1-0.5-1.7-0.5c-0.9,0-1.6,0.3-2.1,0.9c-0.5,0.6-0.8,1.4-0.8,2.3
			c0,1,0.3,1.7,0.8,2.3c0.5,0.6,1.2,0.9,2.1,0.9c0.6,0,1.2-0.2,1.7-0.5c0.2-0.2,0.5-0.2,0.7-0.2c0.2,0,0.4,0.1,0.6,0.3
			c0.2,0.2,0.2,0.5,0.2,0.7c0,0.3-0.2,0.6-0.5,0.8C79.5,15.9,78.5,16.2,77.4,16.2z"/>
		<path id="XMLID_18_" class="st0" d="M85.7,16.2c-0.9,0-1.6-0.3-2.1-0.8c-0.6-0.6-0.9-1.3-0.9-2.3c0-1,0.4-1.8,1-2.4
			c0.7-0.6,1.8-0.9,3.1-0.9h1.8c0-0.7-0.2-1.2-0.5-1.5c-0.3-0.3-0.9-0.5-1.6-0.5c-0.6,0-1.4,0.1-2.2,0.4c0,0,0,0,0,0
			c-0.1,0-0.2,0-0.4,0c-0.2,0-0.4-0.1-0.5-0.3c-0.2-0.2-0.3-0.4-0.3-0.8c0-0.3,0.1-0.6,0.6-0.9c1-0.5,2-0.7,3.1-0.7
			c1.2,0,2.2,0.4,2.9,1.3c0.6,0.7,0.9,1.6,0.9,2.7V15c0,0.3-0.1,0.6-0.3,0.8c-0.2,0.2-0.5,0.3-0.7,0.3c-0.3,0-1,0-1,0l0-1
			c-0.3,0.2-0.5,0.4-0.9,0.6C87.3,16,86.6,16.2,85.7,16.2z M87.1,11.6c-0.8,0-1.4,0.1-1.8,0.3c-0.4,0.2-0.5,0.5-0.5,0.9
			c0,0.5,0.2,1.3,1.6,1.3c0.5,0,0.9-0.1,1.4-0.4c0.4-0.3,0.8-0.5,1-0.9v-1.3H87.1z"/>
	</g>
	<path id="XMLID_14_" class="st0" d="M16.4,0.5H4.1c-2.1,0-3.8,1.7-3.8,3.8v12.3c0,2.1,1.7,3.8,3.8,3.8h12.3c2.1,0,3.8-1.7,3.8-3.8
		V4.3C20.2,2.2,18.5,0.5,16.4,0.5z M14.1,14.4H6.3V6.6h7.8V14.4z"/>
</g>
</svg>
